<?xml version="1.0" encoding="UTF-8"?>
<svg version="1.1" xmlns="http://www.w3.org/2000/svg" width="392" height="117">
<path d="M0 0 C129.36 0 258.72 0 392 0 C392 38.61 392 77.22 392 117 C262.64 117 133.28 117 0 117 C0 78.39 0 39.78 0 0 Z " fill="#22190F" transform="translate(0,0)"/>
<path d="M0 0 C1.6026782 -0.10824843 3.20745748 -0.18570645 4.8125 -0.25 C5.70582031 -0.29640625 6.59914063 -0.3428125 7.51953125 -0.390625 C10 0 10 0 11.51367188 1.64453125 C13.23987024 4.38013602 14.22517502 7.01356093 15.26171875 10.078125 C15.65810547 11.23828125 16.05449219 12.3984375 16.46289062 13.59375 C17.06907227 15.40359375 17.06907227 15.40359375 17.6875 17.25 C18.10322266 18.47203125 18.51894531 19.6940625 18.94726562 20.953125 C19.97137773 23.96660431 20.9886785 26.98220904 22 30 C25.04466917 22.50949552 27.87697429 14.95914678 30.61914062 7.35351562 C30.91369141 6.54462891 31.20824219 5.73574219 31.51171875 4.90234375 C31.90556763 3.81167603 31.90556763 3.81167603 32.30737305 2.69897461 C33 1 33 1 34 0 C35.85287502 -0.07226502 37.70833878 -0.0838122 39.5625 -0.0625 C40.57441406 -0.05347656 41.58632813 -0.04445313 42.62890625 -0.03515625 C43.41136719 -0.02355469 44.19382812 -0.01195312 45 0 C44.835 0.515625 44.67 1.03125 44.5 1.5625 C43.33640288 7.23503597 44.15204196 12.66903466 45.2421875 18.2890625 C45.37062042 18.95537689 45.49905334 19.62169128 45.63137817 20.30819702 C45.90229843 21.7054297 46.17641838 23.10204547 46.45361328 24.49804688 C46.87494085 26.62470145 47.28387989 28.75347503 47.69140625 30.8828125 C47.95760106 32.24753887 48.22450399 33.61212735 48.4921875 34.9765625 C48.73308105 36.20455566 48.97397461 37.43254883 49.22216797 38.69775391 C49.99578015 42.34862515 49.99578015 42.34862515 52 47 C47.05 47 42.1 47 37 47 C37.33 44.69 37.66 42.38 38 40 C37.8906419 37.7821195 37.8906419 37.7821195 37.44140625 35.80859375 C37.30283203 35.09123047 37.16425781 34.37386719 37.02148438 33.63476562 C36.79428711 32.54711914 36.79428711 32.54711914 36.5625 31.4375 C35.57121678 26.54168638 34.80133484 22.03020184 35 17 C34.34 17 33.68 17 33 17 C32.79697266 17.87785156 32.79697266 17.87785156 32.58984375 18.7734375 C30.97696071 25.20565368 28.87724709 31.41746501 26.5625 37.625 C26.27431396 38.43114746 25.98612793 39.23729492 25.68920898 40.06787109 C25.40118408 40.82148926 25.11315918 41.57510742 24.81640625 42.3515625 C24.56318604 43.03041504 24.30996582 43.70926758 24.04907227 44.40869141 C23 46 23 46 20.88647461 46.72802734 C19.95266968 46.86265381 19.95266968 46.86265381 19 47 C10.52222536 26.00609301 10.52222536 26.00609301 7 16 C6.32409812 19.37321776 5.66094482 22.74882242 5 26.125 C4.80921875 27.07632813 4.6184375 28.02765625 4.421875 29.0078125 C2.49463598 38.19372485 2.49463598 38.19372485 5 47 C1.37 47 -2.26 47 -6 47 C-5.67 45.68 -5.34 44.36 -5 43 C-3.38920928 35.49785162 -2.07227868 27.94276793 -0.8125 20.375 C-0.62236328 19.29476563 -0.43222656 18.21453125 -0.23632812 17.1015625 C0.76051532 11.06900438 1.14412305 6.01939896 0 0 Z " fill="#DDC288" transform="translate(261,11)"/>
<path d="M0 0 C5.28 0 10.56 0 16 0 C15 4 15 4 14 5 C13.76304852 7.69422605 13.57831398 10.36334611 13.4375 13.0625 C13.293125 15.681875 13.14875 18.30125 13 21 C19.6 21 26.2 21 33 21 C32.87625 18.463125 32.7525 15.92625 32.625 13.3125 C32.59100098 12.52270752 32.55700195 11.73291504 32.52197266 10.91918945 C32.4863623 10.28198975 32.45075195 9.64479004 32.4140625 8.98828125 C32.3826416 8.34415283 32.3512207 7.70002441 32.31884766 7.03637695 C31.9887447 4.43223699 31.9887447 4.43223699 30 0 C35.28 0 40.56 0 46 0 C45 4 45 4 44 5 C43.88659026 7.71554392 43.8358198 10.40470043 43.83203125 13.12109375 C43.82870285 13.93618912 43.82537445 14.75128448 43.82194519 15.59107971 C43.81687258 17.31860793 43.81453697 19.04614598 43.81469727 20.77368164 C43.81251208 23.42285245 43.79436379 26.07160616 43.77539062 28.72070312 C43.77245656 30.3958319 43.77047185 32.07096267 43.76953125 33.74609375 C43.76234573 34.54196396 43.75516022 35.33783417 43.74775696 36.15782166 C43.58977123 40.54708093 43.58977123 40.54708093 46 44 C46 44.99 46 45.98 46 47 C40.72 47 35.44 47 30 47 C30.66 45.35 31.32 43.7 32 42 C32.35382861 39.8870939 32.35382861 39.8870939 32.4140625 37.79296875 C32.44967285 37.11516357 32.4852832 36.4373584 32.52197266 35.73901367 C32.55597168 34.89701416 32.5899707 34.05501465 32.625 33.1875 C32.74875 30.485625 32.8725 27.78375 33 25 C26.4 25 19.8 25 13 25 C13.185625 29.145625 13.185625 29.145625 13.375 33.375 C13.40899902 34.24431152 13.44299805 35.11362305 13.47802734 36.00927734 C13.54791085 40.47543818 13.54791085 40.47543818 16 44 C16 44.99 16 45.98 16 47 C10.72 47 5.44 47 0 47 C0.66 45.35 1.32 43.7 2 42 C2.18897557 39.16322713 2.28057176 36.42857801 2.265625 33.59375 C2.26753845 32.79142944 2.2694519 31.98910889 2.27142334 31.16247559 C2.27278025 29.47143234 2.26911837 27.78037851 2.26074219 26.08935547 C2.25003547 23.50854988 2.26065404 20.92844032 2.2734375 18.34765625 C2.27211582 16.7005193 2.26955324 15.05338279 2.265625 13.40625 C2.27169769 12.2544928 2.27169769 12.2544928 2.27789307 11.07946777 C2.23944868 6.66290817 1.69430343 4.23575857 0 0 Z " fill="#E2C68B" transform="translate(165,11)"/>
<path d="M0 0 C5.28 0 10.56 0 16 0 C15 4 15 4 14 5 C13.76304852 7.69422605 13.57831398 10.36334611 13.4375 13.0625 C13.293125 15.681875 13.14875 18.30125 13 21 C19.6 21 26.2 21 33 21 C32.87625 18.463125 32.7525 15.92625 32.625 13.3125 C32.59100098 12.52270752 32.55700195 11.73291504 32.52197266 10.91918945 C32.4863623 10.28198975 32.45075195 9.64479004 32.4140625 8.98828125 C32.3826416 8.34415283 32.3512207 7.70002441 32.31884766 7.03637695 C31.9887447 4.43223699 31.9887447 4.43223699 30 0 C35.28 0 40.56 0 46 0 C45 4 45 4 44 5 C43.88659026 7.71554392 43.8358198 10.40470043 43.83203125 13.12109375 C43.82870285 13.93618912 43.82537445 14.75128448 43.82194519 15.59107971 C43.81687258 17.31860793 43.81453697 19.04614598 43.81469727 20.77368164 C43.81251208 23.42285245 43.79436379 26.07160616 43.77539062 28.72070312 C43.77245656 30.3958319 43.77047185 32.07096267 43.76953125 33.74609375 C43.76234573 34.54196396 43.75516022 35.33783417 43.74775696 36.15782166 C43.58977123 40.54708093 43.58977123 40.54708093 46 44 C46 44.99 46 45.98 46 47 C40.72 47 35.44 47 30 47 C30.66 45.35 31.32 43.7 32 42 C32.35382861 39.8870939 32.35382861 39.8870939 32.4140625 37.79296875 C32.44967285 37.11516357 32.4852832 36.4373584 32.52197266 35.73901367 C32.55597168 34.89701416 32.5899707 34.05501465 32.625 33.1875 C32.74875 30.485625 32.8725 27.78375 33 25 C26.4 25 19.8 25 13 25 C13.185625 29.145625 13.185625 29.145625 13.375 33.375 C13.40899902 34.24431152 13.44299805 35.11362305 13.47802734 36.00927734 C13.54791085 40.47543818 13.54791085 40.47543818 16 44 C16 44.99 16 45.98 16 47 C10.72 47 5.44 47 0 47 C0.66 45.35 1.32 43.7 2 42 C2.18897557 39.16322713 2.28057176 36.42857801 2.265625 33.59375 C2.26753845 32.79142944 2.2694519 31.98910889 2.27142334 31.16247559 C2.27278025 29.47143234 2.26911837 27.78037851 2.26074219 26.08935547 C2.25003547 23.50854988 2.26065404 20.92844032 2.2734375 18.34765625 C2.27211582 16.7005193 2.26955324 15.05338279 2.265625 13.40625 C2.27169769 12.2544928 2.27169769 12.2544928 2.27789307 11.07946777 C2.23944868 6.66290817 1.69430343 4.23575857 0 0 Z " fill="#E2C68B" transform="translate(25,11)"/>
<path d="M0 0 C1.76949095 -0.10815225 3.54087487 -0.18566083 5.3125 -0.25 C6.29863281 -0.29640625 7.28476563 -0.3428125 8.30078125 -0.390625 C11 0 11 0 12.43603516 1.48486328 C14.64056006 5.03013577 16.14792499 8.77405292 17.72265625 12.6328125 C18.06880478 13.46585907 18.41495331 14.29890564 18.77159119 15.15719604 C19.87395936 17.81093306 20.96899739 20.46759867 22.0625 23.125 C23.15982995 25.78942951 24.25884896 28.4530816 25.36412048 31.11422729 C26.05110155 32.76830108 26.73351322 34.42428151 27.41090393 36.08230591 C27.72140182 36.83003265 28.03189972 37.5777594 28.35180664 38.34814453 C28.62255508 39.00670441 28.89330353 39.66526428 29.17225647 40.34378052 C29.99253714 42.20346753 29.99253714 42.20346753 32 44 C32 44.99 32 45.98 32 47 C26.39 47 20.78 47 15 47 C15.390625 43.63085938 15.390625 43.63085938 15.78125 40.26171875 C16.04813463 37.88103445 16.04813463 37.88103445 16 35 C9.73 35 3.46 35 -3 35 C-4.69337525 42.53774984 -4.69337525 42.53774984 -2 47 C-5.96 47 -9.92 47 -14 47 C-13.34 45.68 -12.68 44.36 -12 43 C-9.85272951 37.92688671 -7.79591273 32.81972241 -5.7578125 27.7019043 C-5.08679336 26.02777007 -4.40776153 24.3568249 -3.72070312 22.68920898 C-2.72623252 20.27294127 -1.75911843 17.8472208 -0.796875 15.41796875 C-0.48659363 14.67918991 -0.17631226 13.94041107 0.14337158 13.179245 C2.14893028 8.00180593 2.04564539 5.1783056 0 0 Z " fill="#DFC489" transform="translate(88,11)"/>
<path d="M0 0 C2.8238724 1.70981304 4.97163958 3.18014908 6.375 6.25 C6.5625 10 6.5625 10 6.375 13.25 C4.395 13.58 2.415 13.91 0.375 14.25 C-1.70453068 11.74022159 -3.58964561 9.30983051 -5.25 6.5 C-6.4262504 4.12854191 -6.4262504 4.12854191 -8.625 3.25 C-12.67642119 2.99139865 -14.16837669 2.94558446 -17.625 5.25 C-18.10329347 8.93969247 -18.37628125 11.24573629 -16.09375 14.296875 C-12.33139312 17.27342316 -8.09576975 18.37889993 -3.55664062 19.78515625 C1.72355444 21.57656264 4.30132003 23.54213701 7.375 28.25 C8.4165306 32.26908279 8.30928193 36.35372438 6.453125 40.12109375 C3.68353424 43.72695705 0.64765179 45.87664764 -3.625 47.25 C-11.62003585 48.1054794 -18.79132031 47.78614945 -25.625 43.25 C-28.37429477 40.63481717 -29.47705247 39.31029064 -30 35.5625 C-29.625 33.25 -29.625 33.25 -27.625 31.25 C-24.875 31.0625 -24.875 31.0625 -21.625 32.25 C-19.82433396 34.47110457 -18.37168025 36.75564 -16.921875 39.21875 C-15.78370371 41.38448814 -15.78370371 41.38448814 -13.625 42.25 C-8.96214722 42.67378599 -8.96214722 42.67378599 -4.6875 41.125 C-3.12077755 38.36019567 -3.23523565 36.36811483 -3.625 33.25 C-6.47870948 29.07753084 -12.06526505 28.1688389 -16.64453125 26.67578125 C-21.37554854 25.02829478 -24.35339634 23.21821889 -27.625 19.25 C-28.99211412 15.14865765 -29.37722526 11.52916823 -28.625 7.25 C-22.94805769 -2.86562539 -10.13958912 -4.77821083 0 0 Z " fill="#DFC389" transform="translate(151.625,11.75)"/>
<path d="M0 0 C10.89 0 21.78 0 33 0 C34.77997029 4.44992574 35.21222719 6.43711531 35 11 C32.75 10.8125 32.75 10.8125 30 10 C29.484375 9.154375 28.96875 8.30875 28.4375 7.4375 C26.22487264 4.71814721 26.22487264 4.71814721 23.08203125 4.671875 C20.05274564 4.68608033 17.02485497 4.83560571 14 5 C13.67 10.28 13.34 15.56 13 21 C14.588125 20.9175 16.17625 20.835 17.8125 20.75 C18.70582031 20.70359375 19.59914062 20.6571875 20.51953125 20.609375 C23.16053515 20.20878584 23.16053515 20.20878584 24.82421875 17.953125 C25.21222656 17.30859375 25.60023438 16.6640625 26 16 C26.99 16.33 27.98 16.66 29 17 C29 20.96 29 24.92 29 29 C27.68 29 26.36 29 25 29 C24.34 28.01 23.68 27.02 23 26 C20.57478506 25.41810734 20.57478506 25.41810734 17.875 25.3125 C16.96492188 25.24675781 16.05484375 25.18101563 15.1171875 25.11328125 C14.41851562 25.07589844 13.71984375 25.03851563 13 25 C13.14021805 27.64624284 13.28689776 30.29184578 13.4375 32.9375 C13.47681641 33.69224609 13.51613281 34.44699219 13.55664062 35.22460938 C13.44038024 38.91944187 13.44038024 38.91944187 15 42 C22.97069397 43.10350383 22.97069397 43.10350383 30.1953125 40.4375 C31.65499378 38.6887031 32.88999626 36.98685602 34 35 C34.99 35.33 35.98 35.66 37 36 C36.85892253 37.45880109 36.71197585 38.91703551 36.5625 40.375 C36.48128906 41.18710937 36.40007812 41.99921875 36.31640625 42.8359375 C36 45 36 45 35 47 C23.45 47 11.9 47 0 47 C0.66 45.35 1.32 43.7 2 42 C2.18897557 39.16322713 2.28057176 36.42857801 2.265625 33.59375 C2.26753845 32.79142944 2.2694519 31.98910889 2.27142334 31.16247559 C2.27278025 29.47143234 2.26911837 27.78037851 2.26074219 26.08935547 C2.25003547 23.50854988 2.26065404 20.92844032 2.2734375 18.34765625 C2.27211582 16.7005193 2.26955324 15.05338279 2.265625 13.40625 C2.27169769 12.2544928 2.27169769 12.2544928 2.27789307 11.07946777 C2.23944868 6.66290817 1.69430343 4.23575857 0 0 Z " fill="#E1C58A" transform="translate(217,11)"/>
<path d="M0 0 C1.56640625 0.97265625 1.56640625 0.97265625 2.56640625 1.97265625 C2.75390625 4.41015625 2.75390625 4.41015625 2.56640625 6.97265625 C0.56640625 8.97265625 0.56640625 8.97265625 -1.30859375 9.03515625 C-4.75096599 7.31397013 -5.71392399 4.35057898 -7.43359375 0.97265625 C-9.0997128 0.92993525 -10.7674226 0.93201793 -12.43359375 0.97265625 C-13.68515429 2.02127719 -13.68515429 2.02127719 -13.74609375 4.34765625 C-13.71440903 7.05720264 -13.71440903 7.05720264 -11.73046875 8.51953125 C-9.32038681 10.04427696 -7.06568125 10.92913925 -4.37109375 11.84765625 C-1.20595069 13.08476969 0.38949254 13.78563318 2.75390625 16.28515625 C3.84587378 19.89704883 3.50839337 22.33927735 2.56640625 25.97265625 C0.38476688 29.30252686 -2.65887047 30.08044893 -6.43359375 30.97265625 C-12.5111716 31.54582619 -17.16729611 31.39574972 -22.43359375 27.97265625 C-24.43359375 25.97265625 -24.43359375 25.97265625 -24.62109375 23.41015625 C-24.43359375 20.97265625 -24.43359375 20.97265625 -23.43359375 19.97265625 C-21.18359375 19.47265625 -21.18359375 19.47265625 -18.43359375 19.97265625 C-17.203125 21.53515625 -17.203125 21.53515625 -15.99609375 23.47265625 C-14.83587261 25.41270877 -14.83587261 25.41270877 -13.43359375 26.97265625 C-10.22083032 27.55905445 -10.22083032 27.55905445 -7.43359375 26.97265625 C-7.10359375 25.32265625 -6.77359375 23.67265625 -6.43359375 21.97265625 C-9.41465917 19.84332381 -11.99867479 18.11467061 -15.49609375 16.97265625 C-19.39210689 15.64635391 -22.55557844 13.72868687 -24.43359375 9.97265625 C-24.80859375 7.16015625 -24.80859375 7.16015625 -24.43359375 3.97265625 C-17.68901044 -4.50624848 -9.02600444 -4.92809244 0 0 Z " fill="#DDC288" transform="translate(357.43359375,28.02734375)"/>
<path d="M0 0 C3.27269513 2.10202751 6.2442035 4.488407 8 8 C8.41849303 12.5470877 8.53618367 16.67365093 6.8125 20.9375 C3.48338657 24.72580148 1.11642263 25.87595304 -3.9375 26.4375 C-8.2150513 26.25994127 -10.73416458 24.81013746 -14 22 C-16.38713778 19.0558634 -16.96192889 17.34898522 -17.375 13.5625 C-16.86943796 8.75966067 -15.61392138 5.46261625 -12 2.1875 C-7.9790177 -0.19995824 -4.59820608 -0.53645738 0 0 Z " fill="#D6BB84" transform="translate(93,72)"/>
<path d="M0 0 C14.07142857 0 14.07142857 0 19 3 C20.93128416 5.4141052 21.03749393 6.487583 20.8125 9.5625 C19.95027053 12.14918841 19.07804617 13.28335317 17 15 C18.32538124 18.97614372 20.01230914 21.11189884 23 24 C23 24.66 23 25.32 23 26 C20.03 26 17.06 26 14 26 C13.814375 24.6078125 13.814375 24.6078125 13.625 23.1875 C13.18466918 19.86074765 13.18466918 19.86074765 11 17 C8.43717258 16.27034634 8.43717258 16.27034634 6 16 C6.45822468 19.46941546 6.89131683 22.67395049 8 26 C5.36 26 2.72 26 0 26 C0 17.42 0 8.84 0 0 Z " fill="#E0C58A" transform="translate(277,72)"/>
<path d="M0 0 C14.07142857 0 14.07142857 0 19 3 C20.93128416 5.4141052 21.03749393 6.487583 20.8125 9.5625 C19.95027053 12.14918841 19.07804617 13.28335317 17 15 C18.32538124 18.97614372 20.01230914 21.11189884 23 24 C23 24.66 23 25.32 23 26 C20.03 26 17.06 26 14 26 C13.814375 24.6078125 13.814375 24.6078125 13.625 23.1875 C13.18466918 19.86074765 13.18466918 19.86074765 11 17 C8.43717258 16.27034634 8.43717258 16.27034634 6 16 C6.45822468 19.46941546 6.89131683 22.67395049 8 26 C5.36 26 2.72 26 0 26 C0 17.42 0 8.84 0 0 Z " fill="#E0C58A" transform="translate(36,72)"/>
<path d="M0 0 C1.98 0 3.96 0 6 0 C12.70684545 14.29914522 12.70684545 14.29914522 15.4375 20.3125 C15.89962891 21.32763672 15.89962891 21.32763672 16.37109375 22.36328125 C17 24 17 24 17 26 C14.03 26 11.06 26 8 26 C8 24.02 8 22.04 8 20 C4.7 20 1.4 20 -2 20 C-2 21.98 -2 23.96 -2 26 C-3.98 26 -5.96 26 -8 26 C-6.86555055 23.13083415 -5.69597039 20.28245862 -4.4921875 17.44140625 C-3.95293544 16.14851655 -3.41387668 14.8555462 -2.875 13.5625 C-2.59785156 12.91990234 -2.32070312 12.27730469 -2.03515625 11.61523438 C-0.37188386 7.57995529 0.30972941 4.35641149 0 0 Z " fill="#DDC288" transform="translate(126,72)"/>
<path d="M0 0 C3.375 1.1875 3.375 1.1875 6 3 C6.875 5.6875 6.875 5.6875 7 8 C4.6875 7.75 4.6875 7.75 2 7 C0.5 5 0.5 5 -1 3 C-3.59855733 2.1957792 -3.59855733 2.1957792 -6 2 C-6 3.98 -6 5.96 -6 8 C-5.39671875 8.25394531 -4.7934375 8.50789063 -4.171875 8.76953125 C5.09038589 12.75827908 5.09038589 12.75827908 7 15 C7.5625 18.4375 7.5625 18.4375 7 22 C4.8535008 24.70043447 3.26947214 25.79798635 -0.16015625 26.34375 C-4.80707847 26.5299372 -8.41962068 26.24471876 -12 23 C-12.8125 20.3125 -12.8125 20.3125 -13 18 C-10.6875 18.25 -10.6875 18.25 -8 19 C-7.505 19.680625 -7.01 20.36125 -6.5 21.0625 C-6.005 21.701875 -5.51 22.34125 -5 23 C-2.37374861 23.33425735 -2.37374861 23.33425735 0 23 C0.33 21.35 0.66 19.7 1 18 C0.22914063 17.66226563 -0.54171875 17.32453125 -1.3359375 16.9765625 C-2.33882812 16.53054687 -3.34171875 16.08453125 -4.375 15.625 C-5.87160156 14.96371094 -5.87160156 14.96371094 -7.3984375 14.2890625 C-10 13 -10 13 -12 11 C-12.4375 7.625 -12.4375 7.625 -12 4 C-8.42859597 -0.22075022 -5.36254955 -0.65855872 0 0 Z " fill="#DBC087" transform="translate(174,72)"/>
<path d="M0 0 C3.62315637 1.59065402 5.27671449 3.9502979 7.5625 7.125 C9.10533245 11.75349735 9.47493466 16.20408492 7.375 20.625 C5.5625 22.125 5.5625 22.125 3.1875 22.75 C-1.38011901 21.66247167 -3.17927556 17.92246349 -5.75 14.25 C-6.84615624 10.86188072 -7.01965778 7.63950808 -6.4375 4.125 C-4.48254686 1.15636746 -3.57609503 0.18338949 0 0 Z " fill="#291F14" transform="translate(87.4375,73.875)"/>
<path d="M0 0 C5.94 0 11.88 0 18 0 C18 1.98 18 3.96 18 6 C17.34 6 16.68 6 16 6 C15.34 5.01 14.68 4.02 14 3 C10.41642759 2.74984127 10.41642759 2.74984127 7 3 C6.67 5.97 6.34 8.94 6 12 C8.97065509 11.65772428 8.97065509 11.65772428 12 11 C12.33 10.34 12.66 9.68 13 9 C13.66 9 14.32 9 15 9 C15 11.31 15 13.62 15 16 C14.34 16 13.68 16 13 16 C13 15.34 13 14.68 13 14 C10.69 14 8.38 14 6 14 C6.33 16.97 6.66 19.94 7 23 C8.27875 23.061875 9.5575 23.12375 10.875 23.1875 C11.59429687 23.22230469 12.31359375 23.25710937 13.0546875 23.29296875 C14.01761719 23.14794922 14.01761719 23.14794922 15 23 C15.66 22.01 16.32 21.02 17 20 C17.66 20 18.32 20 19 20 C19.042721 21.66611905 19.04063832 23.33382885 19 25 C18 26 18 26 16.23413086 26.11352539 C15.48526611 26.10828857 14.73640137 26.10305176 13.96484375 26.09765625 C12.87224243 26.09390991 12.87224243 26.09390991 11.75756836 26.09008789 C10.8269458 26.08098389 9.89632324 26.07187988 8.9375 26.0625 C4.5134375 26.0315625 4.5134375 26.0315625 0 26 C0 17.42 0 8.84 0 0 Z " fill="#E1C68B" transform="translate(239,72)"/>
<path d="M0 0 C2.97 0 5.94 0 9 0 C9.103125 0.70125 9.20625 1.4025 9.3125 2.125 C10.09276601 5.38793059 11.47782238 8.0218264 13 11 C13 11.66 13 12.32 13 13 C13.66 13 14.32 13 15 13 C17.84371005 6.6920914 17.84371005 6.6920914 19 0 C20.65 0 22.3 0 24 0 C22.67281301 3.62721493 21.01792816 6.60846007 18.875 9.8125 C15.93690867 14.60208927 15.3185946 17.4514132 16 23 C16.33 23.99 16.66 24.98 17 26 C14.36 26 11.72 26 9 26 C9.12181641 25.00033203 9.12181641 25.00033203 9.24609375 23.98046875 C9.83673949 15.36186251 6.89940719 10.83921773 2 4 C1.34 2.68 0.68 1.36 0 0 Z " fill="#DDC288" transform="translate(316,72)"/>
<path d="M0 0 C3.31248187 -0.02888146 6.62493167 -0.04675799 9.9375 -0.0625 C10.88302734 -0.07087891 11.82855469 -0.07925781 12.80273438 -0.08789062 C14.15141602 -0.09272461 14.15141602 -0.09272461 15.52734375 -0.09765625 C16.77632446 -0.10551147 16.77632446 -0.10551147 18.05053711 -0.11352539 C20 0 20 0 21 1 C21.04063832 2.66617115 21.042721 4.33388095 21 6 C20.34 6 19.68 6 19 6 C18.34 5.01 17.68 4.02 17 3 C15.68 2.67 14.36 2.34 13 2 C13.33 9.92 13.66 17.84 14 26 C11.36 26 8.72 26 6 26 C6 25.34 6 24.68 6 24 C6.66 24 7.32 24 8 24 C8 16.74 8 9.48 8 2 C3.05536365 3.33563616 3.05536365 3.33563616 2 6 C1.34 6 0.68 6 0 6 C0 4.02 0 2.04 0 0 Z " fill="#E2C68B" transform="translate(199,72)"/>
<path d="M0 0 C2.54942138 3.82413206 2.59616601 5.45423416 2 10 C-0.52241801 14.53707656 -3.16674853 17.93010752 -8 20 C-8 16 -8 16 -6 14 C-5.3574765 11.93125966 -5.3574765 11.93125966 -5 10 C-6.32 9.67 -7.64 9.34 -9 9 C-10.32 2.64 -10.32 2.64 -9 0 C-5.78881337 -1.60559331 -3.38634233 -0.86197805 0 0 Z " fill="#DABF86" transform="translate(327,9)"/>
<path d="M0 0 C0.66 0 1.32 0 2 0 C3.00605593 2.60197202 4.00502525 5.20629362 5 7.8125 C5.28617188 8.55048828 5.57234375 9.28847656 5.8671875 10.04882812 C6.13789062 10.76103516 6.40859375 11.47324219 6.6875 12.20703125 C7.06455078 13.18893433 7.06455078 13.18893433 7.44921875 14.19067383 C8 16 8 16 8 19 C3.38 19 -1.24 19 -6 19 C-4.11409966 12.62386075 -2.14364744 6.29411375 0 0 Z " fill="#261C12" transform="translate(93,23)"/>
<path d="M0 0 C2.91916538 -0.34751969 5.13195476 -0.53280018 7.69921875 1.04296875 C9.88339965 2.84637235 11.72206192 4.44412384 13 7 C13.42526125 11.62062705 13.56310381 15.71290557 11.6875 20 C10 22 10 22 7 24 C4.3125 24.125 4.3125 24.125 2 24 C2.825 23.34 3.65 22.68 4.5 22 C7.18167187 18.78199376 7.64057347 17.13986357 7.359375 12.984375 C6.41237492 7.75528759 3.37223174 3.95365101 0 0 Z " fill="#DEC288" transform="translate(88,73)"/>
<path d="M0 0 C2.75 0.5 2.75 0.5 4.015625 2.02734375 C4.84486717 3.31056977 5.6690221 4.59709631 6.48828125 5.88671875 C7.70770017 7.77455483 7.70770017 7.77455483 10.4375 8.25 C11.200625 8.3325 11.96375 8.415 12.75 8.5 C13.74 9.985 13.74 9.985 14.75 11.5 C8.65054478 11.825465 4.0557567 11.94874186 -1.25 8.5 C-3.25 6.5 -3.25 6.5 -3.4375 3.9375 C-3.19283507 0.7568559 -3.07994455 0.68443212 0 0 Z " fill="#D4BA83" transform="translate(336.25,47.5)"/>
<path d="M0 0 C5.5952381 0.5952381 5.5952381 0.5952381 8 3 C8.25 6.5 8.25 6.5 8 10 C6 12 6 12 2.9375 12.1875 C0 12 0 12 -1 11 C-1.09823937 9.33570949 -1.12973631 7.66718069 -1.125 6 C-1.12757813 5.0925 -1.13015625 4.185 -1.1328125 3.25 C-1 1 -1 1 0 0 Z " fill="#31261A" transform="translate(284,74)"/>
<path d="M0 0 C5.5952381 0.5952381 5.5952381 0.5952381 8 3 C8.25 6.5 8.25 6.5 8 10 C6 12 6 12 2.9375 12.1875 C0 12 0 12 -1 11 C-1.09823937 9.33570949 -1.12973631 7.66718069 -1.125 6 C-1.12757812 5.0925 -1.13015625 4.185 -1.1328125 3.25 C-1 1 -1 1 0 0 Z " fill="#31261A" transform="translate(43,74)"/>
<path d="M0 0 C2.44839588 3.67259383 4 6.54648201 4 11 C1.36 11 -1.28 11 -4 11 C-3.5247412 9.35303396 -3.04468109 7.70745272 -2.5625 6.0625 C-2.29566406 5.14597656 -2.02882813 4.22945313 -1.75390625 3.28515625 C-1 1 -1 1 0 0 Z " fill="#31261A" transform="translate(129,78)"/>
<path d="M0 0 C2.25 0.0625 2.25 0.0625 5 1 C6.67849824 3.2308475 7.75999263 5.47405906 9 8 C5.81390075 7.64598897 4.20933322 7.16972964 1.6875 5.125 C0 3 0 3 0 0 Z " fill="#D2B781" transform="translate(161,90)"/>
<path d="M0 0 C0.99 0.33 1.98 0.66 3 1 C3 2.98 3 4.96 3 7 C1.02 7 -0.96 7 -3 7 C-1.125 2.25 -1.125 2.25 0 0 Z " fill="#D2B881" transform="translate(121,91)"/>
<path d="M0 0 C0.88492145 2.47778006 1.11637742 3.66056586 0.25 6.1875 C-1 8 -1 8 -4 9 C-3.71848913 7.68528432 -3.42446661 6.37324233 -3.125 5.0625 C-2.96257812 4.33160156 -2.80015625 3.60070312 -2.6328125 2.84765625 C-2 1 -2 1 0 0 Z " fill="#CEB47F" transform="translate(127,79)"/>
</svg>
